#!OML:ASF H:\Terrain\Patient Classification 1\Terrain2\Thursday\justin.ASF
:FULLY-SPECIFIED
:DEGREES
1752
root 9.20147 18.039 24.9238 -539.771 -7.49836 -172.931
lowerback 9.49097 0.38818 5.72569
upperback 3.94349 0.420989 5.23468
thorax -1.183 -0.0757082 2.17946
lowerneck -11.1867 1.57329 -10.2761
upperneck 40.6823 -1.95279 3.76071
head 16.6409 -3.59646 2.69852
rclavicle 5.1684e-015 2.3059e-014
rhumerus -25.2863 -7.26781 -77.0154
rradius 32.4738
rwrist -11.3746
rhand -21.2564 12.0492
rfingers 7.12502
rthumb 5.12682 -17.8688
lclavicle 5.1684e-015 2.3059e-014
lhumerus -35.7335 4.0561 87.1244
lradius 39.9498
lwrist 4.73887
lhand -15.6011 19.1205
lfingers 7.12502
lthumb 10.585 48.8339
rfemur -15.0638 -6.40399 29.5915
rtibia 25.742
rfoot -8.96642 -1.59709
rtoes 16.9077
lfemur -13.4098 -2.8199 -10.5869
ltibia 51.9271
lfoot -13.9503 -6.39287
ltoes -18.0399
1753
root 9.20023 18.0391 24.8773 -539.657 -7.71654 -172.799
lowerback 9.25356 0.66462 6.46345
upperback 4.09166 0.830331 4.85227
thorax -0.874002 0.154166 1.32794
lowerneck -11.268 1.16084 -9.77332
upperneck 40.4417 -2.69368 4.0162
head 16.6046 -3.73312 2.61058
rclavicle 3.61788e-014 3.73715e-014
rhumerus -25.0104 -8.58078 -77.1727
rradius 32.9877
rwrist -11.5848
rhand -21.1022 12.0098
rfingers 7.12502
rthumb 5.27571 -17.9046
lclavicle 3.61788e-014 3.73715e-014
lhumerus -35.0343 1.88467 87.3553
lradius 40.5953
lwrist 6.22244
lhand -17.5716 19.6457
lfingers 7.12502
lthumb 8.68374 49.4471
rfemur -15.1707 -6.43886 29.7262
rtibia 25.9685
rfoot -9.30663 -1.71072
rtoes 18.0059
lfemur -14.2716 -2.81767 -10.5234
ltibia 51.3329
lfoot -14.6008 -6.19488
ltoes -19.4331
1754
root 9.20058 18.044 24.8344 -539.562 -7.92688 -172.92
lowerback 9.27023 0.603176 6.41658
upperback 3.87188 0.796081 4.77493
thorax -1.11514 0.144021 1.27623
lowerneck -10.6646 1.2413 -9.73465
upperneck 40.4222 -2.76378 4.04594
head 16.4471 -3.78577 2.60133
rclavicle -1.27222e-014 2.38542e-015
rhumerus -25.2908 -8.27976 -77.1747
rradius 33.434
rwrist -11.9104
rhand -21.1611 12.3361
rfingers 7.12502
rthumb 5.2188 -17.5796
lclavicle -1.27222e-014 2.38542e-015
lhumerus -35.2133 1.64801 87.2905
lradius 40.9652
lwrist 6.42169
lhand -18.8203 20.9544
lfingers 7.12502
lthumb 7.47858 50.8022
rfemur -15.2501 -6.50669 29.5952
rtibia 26.271
rfoot -9.62959 -1.78704
rtoes 19.0465
lfemur -15.0908 -2.90078 -10.7525
ltibia 50.6436
lfoot -15.1435 -6.10329
ltoes -18.1252
1755
root 9.1969 18.041 24.7931 -539.502 -7.98262 -173.22
lowerback 9.48036 0.366838 5.95532
upperback 3.85027 0.454702 4.94237
thorax -1.27017 -0.0394789 1.7424
lowerneck -10.9694 1.48415 -10.3692
upperneck 40.5694 -2.17282 4.02405
head 16.5506 -3.6539 2.80035
rclavicle 2.38542e-015 3.33958e-014
rhumerus -24.8388 -7.08524 -77.131
rradius 33.7386
rwrist -12.2496
rhand -21.5499 12.6943
rfingers 7.12502
rthumb 4.84336 -17.2304
lclavicle 2.38542e-015 3.33958e-014
lhumerus -35.2577 2.70077 87.3773
lradius 41.6659
lwrist 6.458
lhand -19.3431 22.381
lfingers 7.12502
lthumb 6.97394 52.2461
rfemur -15.2421 -6.53493 29.2625
rtibia 26.5372
rfoot -10.0051 -1.85087
rtoes 18.6891
lfemur -15.781 -2.8827 -11.2495
ltibia 49.889
lfoot -15.5046 -5.81415
ltoes -17.1587
1756
root 9.19061 18.0257 24.7567 -539.466 -7.90319 -173.161
lowerback 9.6744 0.314233 6.01838
upperback 3.81742 0.397397 5.056
thorax -1.41087 -0.0782619 1.83337
lowerneck -10.987 1.62141 -10.6615
upperneck 40.5652 -1.87792 4.05994
head 16.5239 -3.57298 2.9171
rclavicle 4.25399e-014 4.53229e-014
rhumerus -24.5112 -6.5078 -77.0977
rradius 34.1169
rwrist -12.4625
rhand -21.897 12.9264
rfingers 7.12502
rthumb 4.50827 -17.0056
lclavicle 4.25399e-014 4.53229e-014
lhumerus -35.3377 2.94903 87.5069
lradius 42.4114
lwrist 6.86548
lhand -19.6735 22.2489
lfingers 7.12502
lthumb 6.655 52.1243
rfemur -15.2845 -6.56207 29.3268
rtibia 26.8109
rfoot -10.4518 -1.84844
rtoes 17.8985
lfemur -16.4363 -2.72256 -11.3555
ltibia 49.1188
lfoot -15.8469 -5.20471
ltoes -18.0177
1757
root 9.18284 18.0135 24.724 -539.373 -7.64191 -172.75
lowerback 9.58032 0.750723 7.03665
upperback 4.08115 1.01549 4.77983
thorax -1.04234 0.243573 0.915207
lowerneck -11.5429 1.1859 -10.2155
upperneck 40.5499 -2.55606 4.25407
head 16.7295 -3.70215 2.8247
rclavicle 3.22031e-014 1.43125e-014
rhumerus -23.9971 -7.64788 -77.1721
rradius 34.5652
rwrist -12.8028
rhand -21.9808 13.3489
rfingers 7.12502
rthumb 4.42726 -16.5849
lclavicle 3.22031e-014 1.43125e-014
lhumerus -34.5765 1.71888 87.4842
lradius 43.1643
lwrist 7.05007
lhand -19.7401 22.2076
lfingers 7.12502
lthumb 6.59073 52.0851
rfemur -15.4789 -6.52808 29.7816
rtibia 27.132
rfoot -10.7446 -1.65099
rtoes 18.2675
lfemur -17.1533 -2.38188 -11.0346
ltibia 48.2825
lfoot -16.2665 -4.80894
ltoes -18.9193
1758
root 9.1733 18.003 24.6868 -539.198 -7.35061 -172.625
lowerback 9.40808 0.60933 6.79355
upperback 3.85896 0.798144 5.17444
thorax -1.1978 0.117099 1.48421
lowerneck -10.7042 1.61626 -10.7007
upperneck 40.5065 -1.86623 3.92106
head 16.4211 -3.59103 2.86355
rclavicle 1.86858e-014 -7.31528e-014
rhumerus -24.0055 -5.69578 -76.9594
rradius 35.0467
rwrist -13.5401
rhand -21.7856 13.6039
rfingers 7.12502
rthumb 4.61579 -16.3258
lclavicle 1.86858e-014 -7.31528e-014
lhumerus -35.2913 3.27855 87.5447
lradius 43.9892
lwrist 6.77906
lhand -19.5945 22.6295
lfingers 7.12502
lthumb 6.73124 52.5025
rfemur -15.6973 -6.46293 29.9197
rtibia 27.4424
rfoot -10.8862 -1.41231
rtoes 18.7279
lfemur -17.8625 -1.9988 -11.047
ltibia 47.3809
lfoot -16.7176 -4.56239
ltoes -18.746
1759
root 9.16897 17.9947 24.6432 -539.105 -7.21252 -172.959
lowerback 9.43019 0.734343 6.55563
upperback 3.82076 0.976144 5.00831
thorax -1.25104 0.216238 1.42428
lowerneck -10.3752 1.55594 -10.5912
upperneck 40.381 -2.00057 3.82398
head 16.2849 -3.64029 2.77797
rclavicle -3.63776e-014 4.77083e-015
rhumerus -23.9967 -5.46238 -76.9246
rradius 35.6564
rwrist -13.902
rhand -21.3297 13.4983
rfingers 7.12502
rthumb 5.05604 -16.4214
lclavicle -3.63776e-014 4.77083e-015
lhumerus -35.1913 2.68655 87.5772
lradius 44.2558
lwrist 7.2055
lhand -20.0171 22.7709
lfingers 7.12502
lthumb 6.32327 52.6565
rfemur -15.7112 -6.30025 29.5475
rtibia 27.7127
rfoot -11.1086 -1.45631
rtoes 18.6322
lfemur -18.3482 -1.83422 -11.5784
ltibia 46.4169
lfoot -17.2572 -4.14291
ltoes -17.6081
1760
root 9.17024 17.9886 24.6077 -539.064 -7.29347 -172.932
lowerback 9.60561 0.788784 6.56295
upperback 3.85348 1.05744 5.01824
thorax -1.3113 0.252546 1.42165
lowerneck -10.5903 1.43234 -10.6071
upperneck 40.3666 -2.10773 3.81387
head 16.3445 -3.67022 2.7623
rclavicle 1.66979e-014 3.65764e-014
rhumerus -23.753 -5.35033 -76.8089
rradius 36.3525
rwrist -14.2655
rhand -20.7687 13.1693
rfingers 7.12502
rthumb 5.59771 -16.7368
lclavicle 1.66979e-014 3.65764e-014
lhumerus -34.9309 2.33064 87.6633
lradius 44.6716
lwrist 7.45649
lhand -20.7962 22.6824
lfingers 7.12502
lthumb 5.57116 52.5891
rfemur -15.741 -6.04588 29.5856
rtibia 27.9871
rfoot -11.4281 -1.76738
rtoes 18.7095
lfemur -18.8863 -1.7321 -11.6775
ltibia 45.4251
lfoot -17.7307 -3.9069
ltoes -17.4807
1761
root 9.16586 17.9781 24.5844 -538.968 -7.47043 -172.579
lowerback 9.88257 0.898699 7.28177
upperback 3.74143 1.31361 4.84543
thorax -1.54814 0.382628 0.813838
lowerneck -10.8596 1.3346 -10.0003
upperneck 40.6278 -2.40432 3.77425
head 16.5744 -3.71086 2.58966
rclavicle -8.15017e-015 -3.89618e-014
rhumerus -23.7642 -5.90424 -76.8941
rradius 36.9687
rwrist -14.4546
rhand -20.7542 12.9218
rfingers 7.12502
rthumb 5.61172 -16.9839
lclavicle -8.15017e-015 -3.89618e-014
lhumerus -34.6619 1.71693 87.4802
lradius 45.0266
lwrist 7.54268
lhand -20.8853 22.3306
lfingers 7.12502
lthumb 5.48509 52.2396
rfemur -15.9215 -6.01668 29.9817
rtibia 28.2444
rfoot -11.6437 -1.93107
rtoes 18.3269
lfemur -19.5913 -1.67137 -11.4253
ltibia 44.4317
lfoot -18.0607 -3.91158
ltoes -18.6021
